<?xml version="1.0" encoding="UTF-8"?>
<svg width="125px" height="29px" viewBox="0 0 125 29" version="1.1" xmlns="http://www.w3.org/2000/svg" xmlns:xlink="http://www.w3.org/1999/xlink">
    <title>Artboard</title>
    <g id="Artboard" stroke="none" stroke-width="1" fill="none" fill-rule="evenodd">
        <path d="M12.12,28.28 C25.68,28.28 29.76,22.72 29.76,14.84 L29.76,0.4 L18.96,0.4 L18.96,14.8 C18.96,17.48 18.16,19.08 11.72,19.08 C8.88,19.08 5.12,18.6 2.4,17.8 L0,26.56 C3.28,27.64 7.28,28.28 12.12,28.28 Z M59.28,28.24 C66,28.24 72.92,27.4 78.76,26.08 L76.84,17.16 C72.12,18 65.8,19.04 59.68,19.04 C50.2,19.04 48.56,17.6 48.56,14.12 C48.56,10.64 50.2,9.2 59.68,9.2 C65.8,9.2 72.12,10.24 76.84,11.08 L78.76,2.16 C72.92,0.84 66,0 59.28,0 C43.24,0 37.76,5.24 37.76,14.12 C37.76,23 43.24,28.24 59.28,28.24 Z M125.04,27.68 L125.04,19.28 L98.56,19.28 L98.56,17.4 L124.28,17.4 L124.28,10.6 L98.56,10.6 L98.56,8.8 L125.04,8.8 L125.04,0.4 L87.76,0.4 L87.76,27.68 L125.04,27.68 Z" id="JCE" fill="#000000" fill-rule="nonzero"></path>
    </g>
</svg>